<svg width="107" height="64" viewBox="0 0 107 64" fill="none" xmlns="http://www.w3.org/2000/svg">
<rect y="19.1638" width="106.584" height="31.096" rx="15.548" fill="white"/>
<path d="M53.5593 40.6624C51.9214 40.6624 50.3267 40.6624 48.681 40.6624C48.681 40.1024 48.681 39.5488 48.681 38.9056C47.5066 39.568 46.4894 40.2592 45.421 40.8704C44.1602 40.7712 42.9662 40.5344 41.8664 40.0416C40.0754 39.2416 38.9245 38.0288 38.4729 36.4128C37.9269 34.4544 38.1586 32.5792 39.6276 30.896C40.8452 29.5008 42.5459 28.7296 44.608 28.4736C46.0062 28.3008 47.3967 28.3584 48.736 28.7328C51.1869 29.4176 52.6952 30.8192 53.2922 32.8576C53.4611 33.4336 53.5357 34.0416 53.5475 34.6368C53.5789 36.5024 53.5593 38.3648 53.5593 40.2304C53.5593 40.368 53.5593 40.5056 53.5593 40.6624ZM45.908 36.9984C47.3102 37.0624 48.6928 36.1504 48.7046 34.6496C48.7124 33.3568 47.6795 32.2432 45.9159 32.2432C44.1052 32.24 43.0565 33.3312 43.0604 34.64C43.0644 36.1824 44.5216 37.0624 45.908 36.9984Z" fill="#FE6202"/>
<path d="M22.8993 40.6623C21.2772 40.6623 19.7022 40.6623 18.0957 40.6623C18.0879 40.5855 18.0682 40.512 18.0682 40.4416C18.0722 38.6016 18.0447 36.7647 18.0918 34.9247C18.1311 33.3247 18.8027 31.9007 20.1892 30.7423C21.1829 29.9135 22.4084 29.3855 23.7595 29.0399C24.9025 28.7487 26.0769 28.6239 27.267 28.5631C27.4202 28.5567 27.5733 28.5631 27.754 28.5631C27.754 29.8847 27.754 31.1807 27.754 32.4703C27.1727 32.5439 26.5953 32.5919 26.0337 32.6943C24.3015 33.0047 23.1036 33.9679 22.9465 35.4879C22.919 35.7407 22.8954 35.9967 22.8954 36.2495C22.8915 37.5903 22.8915 38.9311 22.8915 40.2719C22.8993 40.3967 22.8993 40.5183 22.8993 40.6623Z" fill="#FE6202"/>
<path d="M30.9512 28.5792C32.5773 28.5792 34.1602 28.5792 35.7627 28.5792C35.7627 32.608 35.7627 36.624 35.7627 40.6592C34.1602 40.6592 32.5695 40.6592 30.9512 40.6592C30.9512 36.6368 30.9512 32.6208 30.9512 28.5792Z" fill="#FE6202"/>
<path d="M30.1382 24.3232C30.0832 23.072 31.3047 21.6672 33.3825 21.6768C35.0989 21.6832 36.5679 22.7136 36.5836 24.2848C36.5993 25.9776 34.934 26.928 33.3864 26.9344C31.5875 26.9376 30.1421 25.7728 30.1382 24.3232Z" fill="#FE6202"/>
<path d="M59.0463 29.7376C59.0463 30.976 59.0463 32.2144 59.0463 33.4784C58.8146 33.4784 58.6064 33.4784 58.3707 33.4784C58.3707 31.8464 58.3707 30.2208 58.3707 28.5792C58.6417 28.5792 58.8892 28.5792 59.1877 28.5792C59.93 29.8656 60.6842 31.1744 61.4736 32.5472C62.2631 31.184 63.0172 29.888 63.7753 28.5824C64.0424 28.5824 64.3016 28.5824 64.5805 28.5824C64.5805 30.2176 64.5805 31.8368 64.5805 33.4816C64.3723 33.4816 64.1602 33.4816 63.897 33.4816C63.897 32.2464 63.897 31.0176 63.897 29.7888C63.8617 29.7824 63.8263 29.776 63.791 29.7664C63.0683 31.0144 62.3456 32.2624 61.6229 33.5136C61.5129 33.5136 61.4226 33.5136 61.3047 33.5136C60.5781 32.2528 59.8515 30.992 59.1249 29.728C59.0974 29.7312 59.0699 29.7344 59.0463 29.7376Z" fill="#0A1A3B"/>
<path d="M76.2223 31.8528C76.2026 32.432 76.6032 32.8864 77.2317 33.0528C77.9701 33.248 78.6575 33.024 79.223 32.3968C79.4273 32.3968 79.6433 32.3968 79.8633 32.3968C79.5294 33.2992 78.3747 33.7824 77.1531 33.5392C76.0298 33.3152 75.2796 32.3392 75.5035 31.3888C75.747 30.3552 76.7957 29.7408 78.0722 29.8784C79.4234 30.0256 80.1186 30.9152 79.9968 31.856C78.7478 31.8528 77.4988 31.8528 76.2223 31.8528ZM79.2898 31.3824C79.0738 30.7072 78.5475 30.3616 77.7501 30.3616C76.9685 30.3616 76.4265 30.7168 76.2144 31.3824C77.2317 31.3824 78.2411 31.3824 79.2898 31.3824Z" fill="#0A1A3B"/>
<path d="M85.4446 39.0528C84.172 39.0528 82.9191 39.0528 81.67 39.0528C81.6857 39.6096 82.055 40.0384 82.648 40.2048C83.4179 40.4224 84.0227 40.2368 84.714 39.5648C84.9104 39.5648 85.1107 39.5648 85.315 39.5648C85.04 40.4256 83.8853 40.9376 82.707 40.7328C81.5326 40.5312 80.7392 39.536 80.967 38.5536C81.2105 37.4976 82.2553 36.9088 83.6378 37.0624C84.769 37.1936 85.5978 38.0128 85.4446 39.0528ZM84.7533 38.5728C84.5569 37.8624 83.9246 37.4816 83.0801 37.5232C82.4045 37.5584 81.674 38.0608 81.7093 38.5728C82.7109 38.5728 83.7125 38.5728 84.7533 38.5728Z" fill="#0A1A3B"/>
<path d="M68.5003 40.6752C68.2725 40.6752 68.0918 40.6752 67.8797 40.6752C67.864 40.5408 67.8483 40.4192 67.8287 40.2432C67.703 40.3232 67.6126 40.3776 67.5262 40.4352C66.9999 40.7936 66.3911 40.848 65.7588 40.7008C65.2639 40.5856 64.9614 40.304 64.9025 39.8816C64.8436 39.4432 65.0518 39.0976 65.5309 38.8992C65.8334 38.7712 66.1633 38.688 66.4932 38.6112C66.9253 38.512 67.3691 38.4384 67.8012 38.3584C67.809 37.8976 67.5734 37.6512 67.051 37.5552C66.4029 37.4336 65.9198 37.664 65.6095 38.2464C65.421 38.2464 65.2285 38.2464 65.0282 38.2464C65.04 37.6832 65.5349 37.2064 66.2851 37.0912C66.615 37.04 66.9763 37.0432 67.3102 37.0976C68.0486 37.216 68.4767 37.6576 68.4925 38.3072C68.516 39.0784 68.5003 39.856 68.5003 40.6752ZM67.8287 38.832C67.3416 38.9248 66.8978 39.0016 66.4618 39.0912C66.2811 39.1296 66.1005 39.1808 65.9394 39.2512C65.692 39.3632 65.5467 39.5392 65.5741 39.7824C65.5977 40.0096 65.7941 40.2048 66.0926 40.2656C66.5207 40.3552 66.9292 40.32 67.2906 40.0864C67.7815 39.776 67.9111 39.3568 67.8287 38.832Z" fill="#0A1A3B"/>
<path d="M65.4485 31.7184C65.4563 30.6368 66.4422 29.8592 67.7933 29.8656C69.1052 29.872 70.0793 30.6656 70.0793 31.7312C70.0793 32.816 69.0973 33.6064 67.754 33.6032C66.4108 33.6 65.4406 32.8064 65.4485 31.7184ZM69.4155 31.7216C69.4116 30.944 68.7006 30.3808 67.7423 30.3904C66.8114 30.3968 66.124 30.9632 66.124 31.7248C66.124 32.5024 66.831 33.088 67.7698 33.0848C68.7124 33.0816 69.4233 32.496 69.4155 31.7216Z" fill="#0A1A3B"/>
<path d="M77.6637 38.1665C77.4124 38.1665 77.216 38.1665 77.0235 38.1665C76.8075 37.6033 76.4108 37.4113 75.7077 37.5201C75.2403 37.5937 75.0636 37.7889 75.1028 38.1921C75.256 38.4193 75.5388 38.4673 75.8098 38.5281C76.1712 38.6081 76.5443 38.6561 76.9017 38.7553C77.5027 38.9185 77.7619 39.2033 77.7658 39.6417C77.7698 40.1185 77.4556 40.5057 76.89 40.6625C76.2929 40.8289 75.6842 40.8225 75.095 40.6369C74.5294 40.4577 74.2387 40.0673 74.2623 39.5489C74.4587 39.5489 74.659 39.5489 74.8593 39.5489C74.9379 39.6993 74.985 39.8657 75.095 39.9969C75.421 40.3841 76.4815 40.4353 76.8821 40.0961C77.0431 39.9585 77.0706 39.8593 77.0392 39.5265C76.8821 39.2609 76.564 39.2161 76.2615 39.1489C75.9002 39.0689 75.527 39.0177 75.1775 38.9121C74.6158 38.7489 74.3841 38.4801 74.3919 38.0673C74.3959 37.6353 74.6708 37.3441 75.1461 37.1809C75.7038 36.9889 76.2812 36.9889 76.8428 37.1649C77.3613 37.3281 77.6402 37.6609 77.6637 38.1665Z" fill="#0A1A3B"/>
<path d="M73.4296 40.6687C73.1979 40.6687 73.0015 40.6687 72.7541 40.6687C72.7541 40.3039 72.7541 39.9519 72.7541 39.5999C72.7541 39.2671 72.758 38.9375 72.7541 38.6047C72.7423 37.9199 72.3652 37.5743 71.6425 37.5711C70.8884 37.5647 70.3739 37.9935 70.366 38.6431C70.3581 39.2287 70.366 39.8175 70.3621 40.4031C70.3621 40.4895 70.3503 40.5759 70.3464 40.6783C70.1303 40.6783 69.93 40.6783 69.7022 40.6783C69.7022 39.5039 69.7022 38.3359 69.7022 37.1551C69.9065 37.1551 70.1028 37.1551 70.3306 37.1551C70.3424 37.2863 70.3542 37.4079 70.3699 37.5711C70.4878 37.4911 70.5663 37.4367 70.6488 37.3823C71.234 37.0015 71.8821 36.9535 72.5459 37.1935C73.19 37.4271 73.4336 37.8815 73.4336 38.4383C73.4296 39.1743 73.4296 39.9103 73.4296 40.6687Z" fill="#0A1A3B"/>
<path d="M70.9552 29.9552C71.1673 29.9552 71.348 29.9552 71.564 29.9552C71.5758 30.0992 71.5876 30.2368 71.5993 30.4064C71.7054 30.3296 71.7918 30.2624 71.8821 30.2016C72.4595 29.8112 73.1037 29.76 73.7753 29.9968C74.4234 30.2272 74.6748 30.6816 74.6787 31.232C74.6865 31.9712 74.6787 32.7104 74.6787 33.4752C74.4627 33.4752 74.2663 33.4752 74.0071 33.4752C74.0071 33.3344 74.0071 33.184 74.0071 33.0368C74.0071 32.5248 74.0071 32.016 74.0071 31.504C74.0071 31.4144 74.011 31.3248 73.9992 31.2352C73.9285 30.7296 73.5946 30.4256 73.0487 30.3808C72.4202 30.3264 71.89 30.5696 71.7015 31.0208C71.6308 31.1872 71.6111 31.3696 71.6111 31.5456C71.5994 32.1824 71.6072 32.8192 71.6072 33.4752C71.3794 33.4752 71.183 33.4752 70.9552 33.4752C70.9552 32.32 70.9552 31.1552 70.9552 29.9552Z" fill="#0A1A3B"/>
<path d="M83.6339 29.9584C83.8813 29.9584 84.0816 29.9584 84.3487 29.9584C83.5632 31.648 82.7894 33.3056 82.0157 34.9792C81.7996 34.9792 81.5875 34.9792 81.3362 34.9792C81.5443 34.4864 81.7407 34.0192 81.941 33.5424C81.3715 32.3616 80.802 31.1808 80.2128 29.968C80.4721 29.968 80.6842 29.968 80.9277 29.968C81.3676 30.8928 81.8114 31.8272 82.2867 32.8288C82.7501 31.84 83.1861 30.9088 83.6339 29.9584Z" fill="#0A1A3B"/>
<path d="M59.4037 36.2688C58.7753 36.2688 58.1861 36.2688 57.5812 36.2688C57.5812 36.0768 57.5812 35.9264 57.5812 35.76C59.0266 35.76 60.4603 35.76 61.9175 35.76C61.9175 35.9264 61.9175 36.0736 61.9175 36.256C61.3165 36.256 60.7274 36.256 60.1068 36.256C60.1068 37.7408 60.1068 39.1936 60.1068 40.6688C59.8672 40.6688 59.6551 40.6688 59.4037 40.6688C59.4037 39.2096 59.4037 37.76 59.4037 36.2688Z" fill="#0A1A3B"/>
<path d="M78.9442 37.6223C78.6692 37.6223 78.4532 37.6223 78.2057 37.6223C78.2057 37.4591 78.2057 37.3151 78.2057 37.1423C78.4375 37.1423 78.6653 37.1423 78.9442 37.1423C78.9442 37.0047 78.9442 36.8959 78.9442 36.7839C78.9481 35.6895 79.6394 35.2255 80.9905 35.4271C81.0023 35.4943 81.0219 35.5647 81.0298 35.6383C81.0376 35.7151 81.0298 35.7887 81.0298 35.8911C80.6056 35.9071 80.1539 35.7983 79.8436 36.1087C79.5451 36.4031 79.6197 36.7551 79.6197 37.1295C80.0282 37.1295 80.4171 37.1295 80.8216 37.1295C80.8216 37.2959 80.8216 37.4335 80.8216 37.6159C80.4406 37.6159 80.0557 37.6159 79.6394 37.6159C79.6394 38.6495 79.6394 39.6415 79.6394 40.6591C79.3919 40.6591 79.1838 40.6591 78.9442 40.6591C78.9442 39.6575 78.9442 38.6623 78.9442 37.6223Z" fill="#0A1A3B"/>
<path d="M62.864 40.6751C62.6166 40.6751 62.432 40.6751 62.2238 40.6751C62.2238 39.4975 62.2238 38.3327 62.2238 37.1551C62.4438 37.1551 62.6402 37.1551 62.8523 37.1551C62.8719 37.3151 62.8876 37.4623 62.9151 37.6895C63.3589 37.2799 63.8224 37.0239 64.4862 37.0975C64.4862 37.2639 64.4862 37.4239 64.4862 37.6063C64.4116 37.6127 64.3212 37.6191 64.2309 37.6255C63.4768 37.6671 62.9622 38.0383 62.9112 38.6527C62.864 39.2095 62.8837 39.7727 62.8758 40.3327C62.8758 40.4479 62.868 40.5663 62.864 40.6751Z" fill="#0A1A3B"/>
<path d="M86.3676 37.1552C86.5836 37.1552 86.7682 37.1552 86.9725 37.1552C86.9843 37.3312 86.9961 37.4912 87.0118 37.7248C87.4399 37.3024 87.9073 37.04 88.5946 37.0912C88.5946 37.264 88.5946 37.4304 88.5946 37.6C88.5829 37.6032 88.5671 37.6128 88.5514 37.6128C87.4517 37.6736 87.0196 38.0448 87.0196 38.9472C87.0196 39.52 87.0196 40.0896 87.0196 40.6752C86.784 40.6752 86.5836 40.6752 86.3676 40.6752C86.3676 39.5008 86.3676 38.3424 86.3676 37.1552Z" fill="#0A1A3B"/>
</svg>
